<?xml version="1.0" encoding="utf-8"?>
<!-- Generator: Adobe Illustrator 25.2.1, SVG Export Plug-In . SVG Version: 6.00 Build 0)  -->
<svg version="1.1" xmlns="http://www.w3.org/2000/svg" xmlns:xlink="http://www.w3.org/1999/xlink" x="0px" y="0px"
	 viewBox="0 0 1190.55 841.89" style="enable-background:new 0 0 1190.55 841.89;" xml:space="preserve">
<style type="text/css">
	.st0{display:none;}
	.st1{fill:#F40808;}
</style>
<g id="Layer_1" class="st0">
</g>
<g id="Layer_2">
	<path class="st1" d="M732.67,717.59L266.25,272.2c-30.94-29.55-32.08-78.59-2.53-109.53l48.45-50.74
		c29.55-30.94,78.59-32.08,109.53-2.53l466.42,445.39c30.94,29.55,32.08,78.59,2.53,109.53l-48.45,50.74
		C812.66,746.01,763.62,747.14,732.67,717.59z"/>
	<path class="st1" d="M416.99,722.09l475.85-454.4c28.34-27.06,29.38-71.97,2.31-100.31l-57.46-60.17
		c-27.06-28.34-71.97-29.38-100.31-2.31l-475.85,454.4c-28.34,27.06-29.38,71.97-2.31,100.31l57.46,60.17
		C343.74,748.12,388.65,749.15,416.99,722.09z"/>
</g>
</svg>
